<?xml version="1.0" standalone="no"?>
<!DOCTYPE svg PUBLIC "-//W3C//DTD SVG 20010904//EN"
 "http://www.w3.org/TR/2001/REC-SVG-20010904/DTD/svg10.dtd">
<svg version="1.0" xmlns="http://www.w3.org/2000/svg"
 width="512.000000pt" height="512.000000pt" viewBox="0 0 512.000000 512.000000"
 preserveAspectRatio="xMidYMid meet">
<metadata>
Created by potrace 1.14, written by Peter Selinger 2001-2017
</metadata>
<g transform="translate(0.000000,512.000000) scale(0.100000,-0.100000)"
fill="#000000" stroke="none">
<path d="M1698 4025 c-2 -1 -37 -6 -78 -9 -271 -25 -561 -166 -770 -376 -230
-230 -358 -511 -386 -847 -6 -81 0 -100 51 -139 74 -56 228 -40 435 48 59 25
251 123 415 212 55 29 147 79 205 110 109 59 413 210 535 266 119 55 424 175
545 215 63 21 118 40 122 44 11 10 -133 151 -220 216 -172 129 -402 223 -612
250 -55 8 -237 15 -242 10z"/>
<path d="M3438 3649 c-405 -82 -988 -262 -1293 -399 -28 -12 -66 -29 -85 -38
-84 -37 -280 -134 -340 -167 -364 -204 -627 -336 -845 -426 -69 -28 -178 -53
-236 -52 -82 0 -135 27 -174 89 -16 24 -30 42 -33 40 -9 -9 28 -99 55 -135 45
-59 72 -80 138 -101 118 -39 463 27 870 166 105 35 195 66 200 68 6 1 24 8 40
15 17 7 58 23 92 37 35 13 92 36 127 50 70 27 377 129 416 139 14 3 68 16 120
30 102 26 260 60 325 69 142 21 209 25 301 23 l104 -4 22 36 c23 39 107 184
233 401 43 74 85 145 93 158 14 22 14 22 -14 20 -16 -1 -68 -10 -116 -19z"/>
<path d="M3338 2905 c-2 -2 -60 -6 -129 -9 -69 -4 -136 -8 -150 -11 -13 -2
-58 -6 -99 -10 -439 -37 -1112 -180 -1625 -345 -260 -84 -455 -121 -615 -116
-52 2 -114 10 -137 18 -24 9 -40 12 -37 7 19 -31 164 -72 314 -88 165 -18 247
-21 550 -21 262 -1 365 2 570 15 875 54 1535 -13 1831 -186 l46 -27 174 122
c96 67 212 149 259 181 47 32 108 75 135 94 28 19 101 70 163 113 61 44 112
81 112 83 0 2 -48 20 -107 39 -118 37 -295 79 -413 96 -41 6 -86 13 -100 16
-14 2 -56 6 -95 9 -38 3 -86 8 -105 11 -37 6 -536 14 -542 9z"/>
<path d="M607 2351 c37 -31 228 -110 413 -171 189 -63 417 -123 740 -195 536
-120 916 -261 1185 -441 44 -29 95 -67 114 -84 22 -19 38 -27 45 -21 6 5 191
104 411 221 220 117 404 216 409 220 16 15 -181 104 -354 159 -140 45 -385
105 -550 135 -174 31 -190 33 -249 42 -25 3 -57 7 -71 10 -83 12 -294 35 -410
43 -74 6 -171 14 -215 17 -44 4 -309 8 -590 9 -280 0 -541 5 -580 9 -90 10
-263 44 -286 57 -29 15 -36 10 -12 -10z"/>
<path d="M671 2250 c176 -138 334 -235 650 -398 74 -38 160 -85 190 -103 68
-42 245 -165 268 -187 10 -9 38 -33 62 -52 64 -51 224 -214 246 -250 23 -40
18 -41 348 38 138 33 285 67 328 77 93 21 93 21 -36 101 -324 201 -759 394
-1149 510 -68 20 -139 40 -158 44 -165 37 -677 207 -770 255 -51 26 -45 16 21
-35z"/>
</g>
</svg>
