<svg width="24" height="19" viewBox="0 0 24 19" fill="none" xmlns="http://www.w3.org/2000/svg"><path d="M22.93 3.88a.5.5 0 0 0-.2-.87l-.79-.2a.5.5 0 0 1-.33-.7l.44-.89a.501.501 0 0 0-.58-.7l-2 .56a.502.502 0 0 1-.44-.08 5 5 0 0 0-8 4v.36a.25.25 0 0 1-.22.25c-2.81.33-5.5-1.1-8.4-4.44a.508.508 0 0 0-.51-.15.5.5 0 0 0-.29.42 7.575 7.575 0 0 0 .46 4.92.25.25 0 0 1-.26.36L.69 6.5a.5.5 0 0 0-.57.59 5.15 5.15 0 0 0 2.37 3.78.25.25 0 0 1 0 .45l-.53.21a.5.5 0 0 0-.26.69 4.36 4.36 0 0 0 3.2 2.48.25.25 0 0 1 0 .47c-1.36.562-2.82.845-4.29.83a.51.51 0 0 0-.2 1 20.062 20.062 0 0 0 8.14 1.93 12.578 12.578 0 0 0 7-2A12.5 12.5 0 0 0 21.11 6.5v-.87a.499.499 0 0 1 .18-.38l1.64-1.37Z" fill="#59595C"/></svg>