<svg width="21" height="21" viewBox="0 0 21 21" fill="none" xmlns="http://www.w3.org/2000/svg"><path d="M.589 7h4a.5.5 0 0 1 .5.5v13a.5.5 0 0 1-.5.5h-4a.5.5 0 0 1-.5-.5v-13a.5.5 0 0 1 .5-.5Zm1.98-7a2.49 2.49 0 0 1 2.48 2.5A2.49 2.49 0 0 1 2.569 5a2.49 2.49 0 0 1-2.48-2.5A2.49 2.49 0 0 1 2.569 0Zm14.02 21h3a.5.5 0 0 0 .5-.5v-8.4c0-3.77-2.13-5.6-5.11-5.6a4.212 4.212 0 0 0-3.17 1.27.41.41 0 0 1-.72-.27.5.5 0 0 0-.5-.5h-3a.5.5 0 0 0-.5.5v13a.5.5 0 0 0 .5.5h3a.5.5 0 0 0 .5-.5V13a2.5 2.5 0 1 1 5 0v7.5a.5.5 0 0 0 .5.5Z" fill="#59595C"/></svg>