<?xml version="1.0" encoding="utf-8"?>
<!-- Generator: Adobe Illustrator 27.0.0, SVG Export Plug-In . SVG Version: 6.00 Build 0)  -->
<svg version="1.1" id="Layer_1" xmlns="http://www.w3.org/2000/svg" xmlns:xlink="http://www.w3.org/1999/xlink" x="0px" y="0px"
	 width="4891px" height="115.5px" viewBox="0 0 4891 115.5" style="enable-background:new 0 0 4891 115.5;" xml:space="preserve">
<style type="text/css">
	.st0{fill:#9C5EB4;}
</style>
<g id="OtlM1e.tif">
	<g>
		<path class="st0" d="M3121,115c-0.1,0.2-0.2,0.5-0.3,0.5c-0.7,0,1770.9,0,1770.3,0c-415.2,0-4475.8,0-4891,0C0,77,0,38.5,0,0
			c9.5,0,1892,0,1901.5,0c0.8,0.2,1.7,0.5,2.5,0.5c16.5,0.2,32.9,0.3,49.4,0.5c9.2,0.1,18.4,0.3,27.6,0.5c6.1,0.1,12.3,0.3,18.4,0.5
			c5.6,0.2,11.1,0.3,16.7,0.5c5.1,0.2,10.3,0.3,15.4,0.5c8.6,0.3,17.2,0.6,25.8,1c7.5,0.3,15,0.7,22.6,1c6.9,0.3,13.9,0.6,20.8,1
			c6,0.3,12,0.6,18.1,1c8.4,0.5,16.8,1,25.2,1.5c6.9,0.4,13.8,1,20.7,1.5c7.7,0.5,15.5,1,23.2,1.5c2.4,0.2,4.8,0.3,7.1,0.5
			c7,0.6,14.1,1.3,21.1,2c4.3,0.4,8.5,0.6,12.8,1c6.5,0.6,12.9,1.3,19.4,2c3.8,0.4,7.5,0.6,11.3,1.1c5.5,0.6,10.9,1.3,16.3,1.9
			c3.4,0.4,6.9,0.7,10.3,1.1c5.1,0.6,10.2,2.5,15.4,1.9c4.6-0.6,9.1,1,13.7,1.6c4.7,0.6,9.4,1.3,14.1,1.9c4.5,0.6,8.9,1.2,13.4,1.8
			c5.4,0.7,10.7,1.4,16.1,2.2c4.3,0.6,8.6,1.2,12.9,1.8c6,0.9,12,1.8,17.9,2.7c6.1,0.9,12.1,1.7,18.2,2.6c6.9,1.1,13.9,2.2,20.8,3.4
			c6.4,1.1,12.9,2.1,19.3,3.2c6.5,1.1,13,2.2,19.6,3.3c6.4,1.1,12.7,2.1,19.1,3.2c7.2,1.2,14.5,2.5,21.7,3.8
			c6.3,1.1,12.5,2.2,18.8,3.2c6.4,1.1,12.7,2.2,19.1,3.3c6.4,1.1,12.7,2.2,19.1,3.3c6.2,1.1,12.4,2.1,18.6,3.2
			c6.4,1.1,12.7,2.1,19.1,3.1c7.7,1.3,15.5,2.6,23.2,3.9c5.7,0.9,11.4,1.9,17.2,2.8c5.8,0.9,11.6,1.8,17.4,2.7
			c5.1,0.8,10.2,1.4,15.3,2.2c5.1,0.7,10.2,1.6,15.3,2.3c5.2,0.7,10.4,1.4,15.6,2.1c5.5,0.8,11,1.6,16.5,2.4c4.5,0.6,9,1,13.4,1.6
			c5.9,0.8,11.8,1.7,17.8,2.4c6.4,0.8,12.9,1.3,19.3,2.1c8,0.9,15.9,2,23.9,2.9c6.8,0.8,13.6,1.4,20.3,2c8.9,0.8,17.8,1.7,26.8,2.5
			c7.8,0.7,15.6,1.4,23.4,2c8.1,0.6,16.1,1,24.2,1.5c2.6,0.2,5.3,0.3,7.9,0.5c8.5,0.6,16.9,1.4,25.4,2c5.5,0.4,11,0.7,16.6,1
			c9.2,0.5,18.5,1,27.7,1.5c7.5,0.4,15,0.7,22.6,1c7.9,0.3,15.7,0.7,23.6,1c5.2,0.2,10.4,0.3,15.6,0.5c5.4,0.2,10.8,0.3,16.2,0.5
			c5.3,0.2,10.6,0.4,15.9,0.5c10,0.2,19.9,0.4,29.9,0.5C3102.7,115.1,3111.8,115,3121,115z"/>
	</g>
</g>
</svg>
