<svg width="243" height="110" fill="none" xmlns="http://www.w3.org/2000/svg"><path d="M168.722 92H.278C.125 92 0 91.775 0 91.5s.125-.5.278-.5h168.444c.153 0 .278.225.278.5s-.125.5-.278.5z" fill="#5F5F73"/><path d="M7 98v1.007H1.41v2.852h4.893v1.02H1.41V107H0v-9h7zm1 0h1v1.308H8V98zm1 9H8v-6.515h1V107zm3.124-6.835v1.084h.015c.496-.837 1.284-1.249 2.365-1.249.481 0 .876.069 1.197.192.32.124.57.288.773.508.205.22.336.48.41.782.072.302.116.645.116 1.016v4.488h-1.197v-4.625c0-.426-.132-.755-.394-1.002-.263-.247-.613-.371-1.08-.371a2.47 2.47 0 0 0-.95.165 1.84 1.84 0 0 0-.671.453 1.807 1.807 0 0 0-.394.686 2.678 2.678 0 0 0-.132.851V107H11v-6.835h1.124zm11.808 6.706v-.865h-.025a1.42 1.42 0 0 1-.801.762 3.099 3.099 0 0 1-1.208.232c-.483 0-.915-.09-1.27-.271a2.653 2.653 0 0 1-.903-.723 3.135 3.135 0 0 1-.534-1.072 4.284 4.284 0 0 1-.191-1.291c0-.452.064-.891.178-1.304.114-.401.292-.749.534-1.059a2.77 2.77 0 0 1 .902-.723 3.022 3.022 0 0 1 1.272-.259c.165 0 .343.013.534.052.19.039.368.09.559.168.19.064.369.181.534.31.178.129.305.284.42.478h.025V98H25v8.884h-1.068v-.013zm-3.737-2.286c.076.284.203.543.356.762.152.22.369.413.61.543.241.129.534.193.877.193.356 0 .648-.064.89-.206.241-.142.445-.323.597-.556.153-.232.267-.49.344-.774.063-.284.101-.581.101-.878 0-.31-.038-.62-.114-.904a2.155 2.155 0 0 0-.356-.775c-.152-.22-.369-.4-.61-.542-.254-.142-.56-.207-.915-.207-.344 0-.649.078-.89.22a1.618 1.618 0 0 0-.585.555c-.152.232-.254.49-.318.8a4.401 4.401 0 0 0-.101.917c0 .271.038.568.114.852zM28 98h1v1.308h-1V98zm.988 9H28v-6.515h1V107h-.012zm3.145-6.835v1.084h.03c.493-.837 1.278-1.249 2.353-1.249.48 0 .871.069 1.191.192.32.124.581.288.77.508.203.22.334.48.407.782.087.302.116.645.116 1.016v4.488h-1.191v-4.625c0-.426-.131-.755-.392-1.002-.262-.247-.625-.371-1.09-.371-.363 0-.668.055-.93.165a1.83 1.83 0 0 0-.668.453 2.051 2.051 0 0 0-.407.686c-.087.261-.13.549-.13.851V107H31v-6.835h1.133zm11.994 8.975c-.567.578-1.47.86-2.68.86-.353 0-.72-.042-1.088-.113a3.535 3.535 0 0 1-.996-.352 2.11 2.11 0 0 1-.75-.635 1.777 1.777 0 0 1-.322-.959h1.256c0 .211.077.381.215.522.137.141.29.268.49.352.183.085.398.155.628.198.23.042.444.07.643.07.413 0 .766-.07 1.057-.197a1.98 1.98 0 0 0 .705-.536 2.44 2.44 0 0 0 .413-.832c.077-.325.123-.691.123-1.072v-.466h-.031a1.978 1.978 0 0 1-.98.945 3.128 3.128 0 0 1-1.394.311c-.582 0-1.072-.099-1.486-.283a3.175 3.175 0 0 1-1.072-.761 3.236 3.236 0 0 1-.644-1.129 4.412 4.412 0 0 1-.214-1.354c0-.423.061-.846.184-1.283.122-.451.306-.846.582-1.199a3.196 3.196 0 0 1 1.087-.874c.46-.226 1.011-.353 1.67-.353.475 0 .934.099 1.333.282.398.198.72.494.95.889h.015v-1.016H45v6.432c-.015 1.128-.306 1.974-.873 2.553zm-1.593-3.16c.276-.155.52-.366.69-.62a3.11 3.11 0 0 0 .397-.875c.077-.324.123-.649.123-.973 0-.31-.03-.621-.107-.917a2.21 2.21 0 0 0-.383-.804 2.079 2.079 0 0 0-.659-.578 2.179 2.179 0 0 0-.995-.226c-.399 0-.751.071-1.027.212a2.04 2.04 0 0 0-.704.564c-.184.24-.322.508-.398.818-.077.31-.123.621-.123.959 0 .325.046.635.107.945.061.31.184.607.352.861.169.253.399.465.66.62.275.155.612.24 1.025.24.399.014.75-.071 1.042-.226zm11.451-5.897v1.014h-1.483v4.292c0 .139.015.236.045.319.015.084.06.153.135.181.06.042.164.083.284.083.12.014.285.028.465.028H54v1h-.944a4.52 4.52 0 0 1-.809-.069c-.224-.042-.42-.098-.554-.223a1.084 1.084 0 0 1-.315-.458 2.605 2.605 0 0 1-.105-.778v-4.389H50v-1.014h1.273V98h1.229v2.069h1.483v.014zM56.194 98v3.44h.03a1.38 1.38 0 0 1 .393-.51 2.3 2.3 0 0 1 .568-.34c.218-.091.436-.157.67-.196a4.03 4.03 0 0 1 .655-.066c.48 0 .873.066 1.194.184.32.104.582.274.772.484a1.6 1.6 0 0 1 .407.745c.088.288.117.602.117.968v4.278h-1.194v-4.409c0-.392-.131-.719-.393-.954-.262-.236-.627-.354-1.078-.354a2.59 2.59 0 0 0-.947.157c-.262.105-.495.236-.67.432a1.701 1.701 0 0 0-.393.654 2.45 2.45 0 0 0-.13.811V107H55v-9h1.194zm11.781 8.436c-.497.376-1.1.564-1.846.564-.523 0-.969-.094-1.348-.255a2.78 2.78 0 0 1-.97-.726c-.261-.295-.458-.685-.588-1.115-.131-.43-.21-.9-.223-1.411 0-.51.079-.981.236-1.397.144-.417.366-.779.628-1.102.275-.309.602-.551.97-.725a2.89 2.89 0 0 1 1.23-.269c.576 0 1.06.121 1.44.363a3.1 3.1 0 0 1 .917.94c.235.376.392.793.471 1.236.092.444.118.874.105 1.277h-4.871a2.51 2.51 0 0 0 .105.833c.078.255.196.483.366.698.17.202.38.363.642.484s.563.175.916.175c.459 0 .825-.108 1.127-.323.288-.215.484-.551.576-.981h1.06c-.144.78-.458 1.344-.943 1.734zm-.261-4.3a2.07 2.07 0 0 0-.393-.604 2.28 2.28 0 0 0-.59-.403 1.968 1.968 0 0 0-1.493 0 1.978 1.978 0 0 0-.575.416 2.036 2.036 0 0 0-.38.605c-.091.228-.144.47-.157.725h3.745a2.409 2.409 0 0 0-.157-.739zM80.485 107l-1.45-5.566h-.028L77.573 107h-1.277L74 100h1.306l1.62 5.721h.03l1.42-5.721h1.291l1.492 5.721h.029L82.795 100H84l-2.267 7h-1.248zm9.795 0c-.27 0-.488-.081-.642-.244-.167-.163-.257-.421-.257-.787a2.466 2.466 0 0 1-1.002.787 3.15 3.15 0 0 1-1.246.244c-.283 0-.566-.027-.822-.095a1.643 1.643 0 0 1-.669-.326 1.678 1.678 0 0 1-.462-.583 1.994 1.994 0 0 1-.18-.868c0-.38.064-.706.193-.936.128-.244.282-.434.488-.597.206-.149.437-.271.694-.339.257-.095.526-.149.796-.204.283-.054.566-.108.823-.135a4.17 4.17 0 0 0 .68-.122c.193-.055.347-.136.463-.245.116-.108.18-.271.18-.474a1.2 1.2 0 0 0-.129-.584 1.026 1.026 0 0 0-.334-.339 1.042 1.042 0 0 0-.462-.149 3.137 3.137 0 0 0-.501-.041c-.45 0-.81.095-1.118.272-.295.176-.45.515-.488 1.017h-1.04c.012-.421.089-.773.243-1.058.154-.285.347-.529.591-.692.244-.176.527-.299.861-.38a4.112 4.112 0 0 1 1.015-.122c.296 0 .578.027.86.068.284.041.54.135.772.271.231.136.424.326.552.57.142.244.206.556.206.95v3.472c0 .272.013.462.038.584.026.122.129.176.283.176a.799.799 0 0 0 .334-.068v.868a2.12 2.12 0 0 1-.72.109zm-1.464-3.405a5.329 5.329 0 0 1-.668.122c-.244.027-.476.068-.72.095-.244.054-.45.109-.642.204-.18.081-.347.203-.463.366-.115.163-.18.38-.18.665 0 .176.039.325.103.461.077.122.154.23.27.312.116.068.244.135.398.163.154.027.309.054.463.054.347 0 .642-.054.886-.149s.45-.231.617-.367a1.58 1.58 0 0 0 .347-.502c.077-.176.116-.352.116-.502v-1.139a1.373 1.373 0 0 1-.527.217zm6.024 5.386a1.936 1.936 0 0 1-.399.589 1.404 1.404 0 0 1-.475.33 1.96 1.96 0 0 1-.617.1c-.128 0-.244-.014-.373-.029a1.668 1.668 0 0 1-.36-.1v-1.076c.103.029.206.072.31.1a.847.847 0 0 0 .32.058.834.834 0 0 0 .514-.158 1.52 1.52 0 0 0 .347-.488l.424-1.205L92 100h1.195l1.863 5.839h.025l1.8-5.839H98l-2.788 8.077c-.129.373-.244.675-.373.904zm5.536-3.579c.113.176.255.312.44.407.17.094.383.162.595.216.227.054.454.068.695.068.171 0 .369-.014.568-.041.198-.027.383-.067.553-.149a.838.838 0 0 0 .411-.311c.114-.136.156-.298.156-.515 0-.284-.113-.514-.34-.663-.227-.149-.511-.257-.851-.352a11.453 11.453 0 0 0-1.121-.244 6.535 6.535 0 0 1-1.106-.311 2.31 2.31 0 0 1-.851-.569c-.227-.244-.34-.582-.34-1.015 0-.339.084-.637.24-.88a2.1 2.1 0 0 1 .61-.596c.256-.149.539-.257.837-.339.327-.081.624-.108.937-.108.397 0 .765.041 1.106.095.34.067.638.176.894.338.255.163.468.379.609.65.142.271.256.609.27 1.016h-1.149a.965.965 0 0 0-.184-.542 1.176 1.176 0 0 0-.383-.352 1.652 1.652 0 0 0-.511-.19 3.838 3.838 0 0 0-.567-.054 3.43 3.43 0 0 0-.525.041 1.921 1.921 0 0 0-.497.135.916.916 0 0 0-.34.258c-.099.108-.142.243-.142.419 0 .19.071.339.213.474.142.122.326.23.539.312.227.094.468.149.737.203.27.067.554.108.823.176.298.054.567.135.851.216.284.095.525.203.738.352.213.149.383.325.51.542.142.23.199.487.199.812 0 .407-.085.745-.27 1.016a2.078 2.078 0 0 1-.695.65 2.788 2.788 0 0 1-.964.338 5.88 5.88 0 0 1-1.078.095c-.383 0-.766-.041-1.121-.108a3.014 3.014 0 0 1-.936-.379 1.923 1.923 0 0 1-.667-.704 2.439 2.439 0 0 1-.269-1.057h1.163c.043.285.114.488.213.65zM114 100.083v1.014h-1.483v4.292c0 .139 0 .236.03.319.015.084.06.153.135.181.06.042.164.083.269.083.12.014.285.028.465.028h.569v1h-.929c-.314 0-.584-.028-.824-.069-.225-.042-.404-.098-.554-.223a1.084 1.084 0 0 1-.315-.458c-.06-.194-.09-.444-.09-.778v-4.389H110v-1.014h1.273V98h1.229v2.069H114v.014zM116.194 98v3.44h.029c.088-.196.219-.366.394-.51a2.699 2.699 0 0 1 1.223-.536 4.04 4.04 0 0 1 .67-.066c.48 0 .873.066 1.194.184.32.104.568.274.772.484.189.209.335.457.407.745.073.288.117.602.117.968v4.278h-1.194v-4.409c0-.392-.131-.719-.393-.954-.263-.236-.627-.354-1.078-.354-.364 0-.67.053-.947.157-.262.105-.495.236-.67.432a1.717 1.717 0 0 0-.393.654 2.458 2.458 0 0 0-.131.811V107H115v-9h1.194zm12.098 9c-.271 0-.489-.081-.657-.244-.154-.163-.244-.421-.244-.787a2.597 2.597 0 0 1-1.018.787 3.162 3.162 0 0 1-1.249.244 3.1 3.1 0 0 1-.811-.095c-.257-.068-.489-.163-.682-.326a1.683 1.683 0 0 1-.464-.583 2.2 2.2 0 0 1-.167-.868c0-.38.052-.706.18-.936.129-.244.296-.434.49-.597.206-.149.437-.271.695-.339.257-.095.528-.149.798-.204.283-.054.554-.108.824-.135.258-.027.489-.068.683-.122.193-.055.347-.136.463-.245.116-.108.167-.271.167-.474 0-.245-.051-.448-.128-.584-.103-.149-.193-.257-.335-.339a1.103 1.103 0 0 0-.464-.149 3.138 3.138 0 0 0-.502-.041c-.45 0-.811.095-1.12.272-.296.176-.463.515-.476 1.017h-1.056c.013-.421.09-.773.245-1.058.154-.285.347-.529.605-.692.244-.176.528-.299.849-.38a4.21 4.21 0 0 1 1.018-.122c.283 0 .579.027.862.068.284.041.541.135.773.271.232.136.412.326.566.57.142.244.206.556.206.95v3.472c0 .272.013.462.039.584.026.122.129.176.296.176.09 0 .193-.013.322-.068v.868c-.129.055-.386.109-.708.109zm-1.481-3.405a5.373 5.373 0 0 1-.669.122c-.232.027-.477.068-.709.095-.231.054-.45.109-.643.204a1.06 1.06 0 0 0-.464.366c-.116.163-.167.38-.167.665 0 .176.026.325.103.461.077.122.167.23.27.312.116.068.245.135.399.163.155.027.309.054.464.054.347 0 .644-.054.888-.149.258-.095.451-.231.605-.367.155-.149.271-.325.348-.502.077-.176.116-.352.116-.502v-1.139a1.446 1.446 0 0 1-.541.217zm7.189-3.512v1.014h-1.509v4.292c0 .139.015.236.045.319.03.084.075.153.136.181a.566.566 0 0 0 .286.083c.121.014.272.028.484.028H134v1h-.936c-.332 0-.604-.028-.83-.069-.226-.042-.408-.098-.543-.223a1.078 1.078 0 0 1-.317-.458c-.076-.194-.106-.444-.106-.778v-4.389H130v-1.014h1.283V98h1.223v2.069H134v.014zM144.836 107l-1.304-5.566h-.026L142.215 107h-1.149L139 100h1.162l1.459 5.721h.026l1.291-5.721h1.162l1.343 5.721h.026l1.433-5.721H148l-2.053 7h-1.111zm4.382-4.869c.145-.432.377-.809.668-1.106.305-.324.668-.58 1.104-.755a4.08 4.08 0 0 1 1.51-.27c.581 0 1.075.094 1.51.27a3.111 3.111 0 0 1 1.772 1.861c.145.432.218.89.218 1.376 0 .499-.073.957-.218 1.389-.16.418-.377.796-.668 1.106-.305.31-.668.566-1.104.742-.435.175-.944.256-1.51.256a4.329 4.329 0 0 1-1.51-.256 3.234 3.234 0 0 1-1.104-.742 3.111 3.111 0 0 1-.668-1.106 4.316 4.316 0 0 1-.218-1.389c0-.499.073-.958.218-1.376zm1.22 2.455c.116.323.276.58.479.796.203.215.436.377.712.485.276.108.566.162.871.162.305 0 .595-.054.871-.162.276-.108.523-.27.712-.485a2.24 2.24 0 0 0 .479-.796c.116-.324.175-.675.175-1.093a3.22 3.22 0 0 0-.175-1.092 2.36 2.36 0 0 0-.479-.796 2.128 2.128 0 0 0-.712-.499 2.378 2.378 0 0 0-.871-.175c-.305 0-.61.054-.871.175a1.847 1.847 0 0 0-.712.499c-.218.216-.363.486-.479.796a3.22 3.22 0 0 0-.175 1.092c0 .418.059.783.175 1.093zm8.447-4.42v1.444h.023c.23-.55.506-.963.839-1.238.333-.261.759-.385 1.253-.371v1.196c-.368 0-.701.055-.966.179a1.639 1.639 0 0 0-.632.536 2.427 2.427 0 0 0-.356.867 6.028 6.028 0 0 0-.103 1.168V107H158v-6.848h.885v.014zM164.136 98v5.324l3.146-2.839h1.524l-2.73 2.368L169 107h-1.441l-2.356-3.414-1.067.942V107H163v-9h1.136zM33 49.137c0 .483-.182.91-.53 1.297-.364.373-.797.566-1.286.566H1.816C.615 51 0 50.379 0 49.137V7.863C0 6.62.6 6 1.816 6h29.032c.49 0 .909.18 1.272.566.35.372.53.814.53 1.297V9.05c0 .483-.18.924-.53 1.297-.363.372-.783.566-1.272.566H4.834V25.18h22.843c1.201 0 1.816.621 1.816 1.863v1.063c0 .483-.181.924-.545 1.325-.363.4-.782.593-1.271.593H4.834v16.062H31.17c.447 0 .852.194 1.243.594.391.4.573.814.573 1.256v1.2H33zm47-20.575c0 7.176-2.223 12.765-6.656 16.794C69.177 49.123 63.5 51 56.326 51H42.888c-.504 0-.937-.193-1.315-.566-.391-.372-.573-.8-.573-1.297V7.863c0-.483.196-.91.573-1.297.378-.373.811-.566 1.315-.566h15.731c6.866 0 12.222 2.056 16.067 6.168C78.238 15.977 80 21.442 80 28.562zm-4.978 0c0-11.77-5.482-17.65-16.473-17.65H46.034v35.175h10.362c9.187 0 15.004-3.298 17.41-9.894.81-2.208 1.216-4.76 1.216-7.63zM117 9.05c0 1.242-.624 1.863-1.872 1.863H91.797V25.18h19.727c1.192 0 1.802.621 1.802 1.863v1.063c0 1.283-.596 1.918-1.802 1.918H91.797v19.112c0 1.228-.596 1.863-1.802 1.863h-1.193C87.596 51 87 50.379 87 49.137V7.863C87 6.62 87.596 6 88.802 6h26.326c1.248 0 1.872.621 1.872 1.863V9.05z" fill="#0B5092"/><path d="M122 37.281c.475 1.126 1.411 2.14 3.073 2.59h.028c2.137.337 4.484 0 7.124-.83 11.384-3.631 28.048-16.688 55.607-25.482h.014c.014-.014.028-.014.042-.014a.328.328 0 0 1 .112-.029c-9.443-11.355-25.045-16.504-39.935-11.749C132.253 6.805 122.168 21.452 122 37.281z" fill="url(#paint0_radial)"/><path d="M121 37.412s.704 8.163 9.026 7.556c0 0 10.158-.138 31.068-8.563 23.048-9.293 37.471-9.528 39.472-8.494L211 10s-29.19 4.895-52.405 17.65C133.449 41.451 124.161 46.056 121 37.411z" fill="url(#paint1_linear)"/><path d="M124 45s4.99 4.001 24.505-2.705c-1.812.697 56.022-19.449 94.495-5.163L218.843 54s-9.493-8.645-50.349-6.269c0 0-39.141 2.718-44.494-2.732z" fill="url(#paint2_linear)"/><path d="M125 47s3.741 3.278 26.561 2.556c22.793-.723 55.356 3.486 69.439 11.61L196.909 74s-8.207-9.389-37.35-15.68C130.416 52.027 125 47 125 47z" fill="url(#paint3_linear)"/><path d="M126 49s5.984 5.816 20.17 12.874c14.199 7.059 22.067 16.39 22.912 18.126L190 75.102s-17.468-12.451-42.722-18.536c0 0-18.161-5.166-21.278-7.566z" fill="url(#paint4_linear)"/><path d="M8 69.541c0 .122-.04.23-.136.324a.393.393 0 0 1-.311.135H.433C.137 70 0 69.852 0 69.541V59.46c0-.31.15-.459.434-.459H7.47c.122 0 .23.04.312.148a.458.458 0 0 1 .122.324v.284c0 .121-.04.23-.122.31a.394.394 0 0 1-.312.135H1.18v3.496h5.545c.299 0 .448.148.448.459v.27a.46.46 0 0 1-.136.324.406.406 0 0 1-.312.148H1.18v3.928h6.386c.109 0 .203.054.298.135a.43.43 0 0 1 .136.31v.27zm12 .001a.477.477 0 0 1-.147.323.443.443 0 0 1-.338.135h-.514a.463.463 0 0 1-.396-.189v.014l-7.283-8.709v8.426a.42.42 0 0 1-.147.323.49.49 0 0 1-.338.135h-.338a.443.443 0 0 1-.338-.135.438.438 0 0 1-.161-.323v-10.07c0-.122.044-.23.162-.324a.48.48 0 0 1 .337-.148h.5c.117 0 .25.067.381.202v-.013c.94 1.146 2.306 2.777 4.097 4.866l1.792 2.103c.528.634.998 1.2 1.41 1.685v-8.385c0-.31.16-.458.499-.458h.337c.133 0 .25.04.338.148.088.095.147.189.147.324v10.07zm12-10.083c0 .04-.014.108-.041.189l.014-.014L27.66 69.73c-.055.175-.193.27-.413.27h-.344c-.22 0-.372-.094-.455-.27L22.04 59.648a.522.522 0 0 1-.041-.19c0-.31.151-.458.468-.458h.317c.207 0 .358.094.427.283l3.843 8.76 3.733-8.76c.069-.189.22-.283.427-.283h.317c.317 0 .468.148.468.459zm2 10.082c0 .297-.124.459-.382.459h-.146c-.315 0-.472-.148-.472-.459V59.46c0-.31.157-.459.472-.459h.146c.247 0 .382.148.382.459v10.08zm12-7.539c0 1.185-.475 2.06-1.425 2.64.866.47 1.285 1.292 1.285 2.45v2.45a.446.446 0 0 1-.154.323.463.463 0 0 1-.335.135h-.321c-.308 0-.447-.148-.447-.458v-2.396c0-1.239-.853-1.872-2.572-1.872h-3.787v4.255c0 .296-.14.458-.447.458h-.322a.463.463 0 0 1-.335-.135.43.43 0 0 1-.14-.323V59.47a.43.43 0 0 1 .14-.323.478.478 0 0 1 .335-.148h4.71c2.543.014 3.815 1.01 3.815 3.002zm-1.244.054c0-1.225-.838-1.858-2.53-1.858h-3.968v3.878h3.717c.839 0 1.495-.162 1.985-.485.517-.363.796-.875.796-1.535zM59 64.42c0 .885-.12 1.65-.372 2.307-.279.724-.65 1.328-1.103 1.784-.451.456-1.05.832-1.753 1.1-.664.255-1.422.389-2.285.389-1.714 0-3.056-.496-4.026-1.476C48.478 67.545 48 66.177 48 64.42c0-1.73.492-3.058 1.488-3.997h-.013C50.405 59.469 51.76 59 53.5 59c1.7 0 3.029.47 4.012 1.422.983.98 1.488 2.32 1.488 3.998zm-1.222 0c0-2.053-.824-3.368-2.458-3.958-.531-.188-1.142-.282-1.833-.282-1.369 0-2.431.363-3.175 1.1-.758.725-1.13 1.785-1.13 3.14 0 1.314.36 2.374 1.09 3.165.013 0 .04.014.066.04.784.792 1.847 1.195 3.162 1.195 1.328 0 2.378-.403 3.149-1.194.757-.792 1.129-1.865 1.129-3.207zM71 69.542a.46.46 0 0 1-.132.323.468.468 0 0 1-.34.135h-.515a.465.465 0 0 1-.397-.189v.014l-7.305-8.709v8.426c0 .121-.06.229-.148.323a.492.492 0 0 1-.338.135h-.339a.445.445 0 0 1-.339-.135.42.42 0 0 1-.147-.323v-10.07a.42.42 0 0 1 .147-.324.482.482 0 0 1 .339-.148h.5c.119 0 .251.067.384.202v-.013a300.539 300.539 0 0 0 4.109 4.866l1.796 2.103c.53.634 1.002 1.2 1.414 1.685v-8.385c0-.31.177-.458.501-.458h.339c.118 0 .235.04.339.148.103.095.132.189.132.324v10.07zm13.986-.001c0 .122-.043.23-.156.324a.472.472 0 0 1-.34.135h-.326c-.326 0-.482-.148-.482-.459V61.74l-4.108 8.004c-.071.162-.213.243-.425.243h-.354a.436.436 0 0 1-.411-.243l-4.109-8.004v7.801c0 .122-.042.23-.142.324a.472.472 0 0 1-.34.135h-.326c-.311 0-.467-.148-.467-.459V59.46c0-.31.156-.459.468-.459h.538c.198 0 .326.081.41.243l4.591 8.948 4.562-8.948a.487.487 0 0 1 .425-.243h.51c.128 0 .241.04.34.148.1.095.156.19.156.324v10.07h-.014zm11 0c0 .122-.04.23-.122.324a.393.393 0 0 1-.312.135h-7.118c-.285 0-.434-.148-.434-.459V59.46c0-.31.15-.459.434-.459h7.037c.122 0 .23.04.312.148a.47.47 0 0 1 .136.324v.284c0 .121-.055.23-.136.31a.394.394 0 0 1-.312.135h-6.305v3.496h5.532c.299 0 .434.148.434.459v.27c0 .108-.04.23-.122.324-.095.094-.19.148-.312.148h-5.532v3.928h6.386c.109 0 .217.054.312.135a.43.43 0 0 1 .136.31v.27h-.014zm11.014.001a.49.49 0 0 1-.119.323.397.397 0 0 1-.304.135h-.462c-.159 0-.278-.067-.344-.189v.014l-6.555-8.709v8.426c0 .121-.04.229-.132.323a.425.425 0 0 1-.318.135h-.317a.398.398 0 0 1-.304-.135.457.457 0 0 1-.145-.323v-10.07c0-.122.053-.23.145-.324.093-.094.185-.148.304-.148h.45c.105 0 .224.067.343.202v-.013a291.34 291.34 0 0 0 3.688 4.866l1.625 2.103c.476.634.899 1.2 1.269 1.685v-8.385c0-.31.145-.458.436-.458h.304a.37.37 0 0 1 .304.148c.092.095.119.189.119.324v10.07H107zm11-9.8a.4.4 0 0 1-.152.31.449.449 0 0 1-.319.136h-3.42v9.353c0 .297-.152.459-.471.459h-.318c-.305 0-.443-.148-.443-.459v-9.353h-3.42c-.305 0-.457-.135-.457-.446v-.283c0-.31.152-.459.457-.459h8.058c.111 0 .222.04.319.148.097.095.152.19.152.324v.27H118zm10 9.826c0 .284-.175.432-.525.432h-.349c-.233 0-.394-.094-.466-.27l-1.414-3.05h-5.434l-1.472 3.064c-.116.175-.262.256-.437.256h-.408c-.32 0-.495-.148-.495-.432a.47.47 0 0 1 .073-.216l-.015.027 4.852-10.096c.116-.189.277-.283.452-.283h.437c.233 0 .378.094.451.283l4.677 10.07a.467.467 0 0 1 .073.215zm-3.322-4.076-2.112-4.495-2.186 4.495h4.298zM137 69.541c0 .297-.178.459-.504.459h-7.007c-.326 0-.489-.148-.489-.459V59.46c0-.31.163-.459.489-.459h.341c.311 0 .474.148.474.459v9.34h6.192c.134 0 .252.054.341.135.104.094.163.202.163.31v.297zM10 78.52c0 1.755-.574 3.118-1.707 4.103C7.217 83.541 5.768 84 3.93 84H.488a.428.428 0 0 1-.33-.135.442.442 0 0 1-.158-.324V73.46c0-.122.043-.23.158-.31a.46.46 0 0 1 .33-.149h4.031c1.75 0 3.142.5 4.118 1.512.918.93 1.363 2.267 1.363 4.008zm-1.277 0c0-2.875-1.406-4.319-4.232-4.319h-3.2V82.8h2.654c2.368 0 3.846-.797 4.477-2.416.2-.54.301-1.16.301-1.863zM20 83.541c0 .122-.04.23-.136.324a.393.393 0 0 1-.312.135h-7.118c-.298 0-.434-.148-.434-.459V73.46c0-.31.136-.459.434-.459h7.05c.11 0 .218.054.313.148a.39.39 0 0 1 .135.31v.284c0 .122-.04.23-.135.324a.413.413 0 0 1-.312.135h-6.319v3.482h5.546c.298 0 .434.149.434.46v.256a.48.48 0 0 1-.122.324.384.384 0 0 1-.312.148h-5.546V82.8h6.386c.109 0 .204.054.299.148a.43.43 0 0 1 .135.31v.284H20zm10-9.799c0 .31-.177.46-.503.46h-6.225v3.481h5.264c.325 0 .473.149.473.46v.256c0 .31-.162.472-.473.472h-5.264v4.67c0 .297-.163.459-.473.459h-.326c-.325 0-.473-.148-.473-.459V73.46c0-.31.148-.459.473-.459h7.024c.326 0 .503.148.503.459v.283zm9.97 9.799a.469.469 0 0 1-.487.459h-7.996c-.335 0-.487-.148-.487-.459V73.46c0-.31.168-.459.487-.459h7.904c.137 0 .244.054.35.148.107.081.152.19.152.31v.284c0 .122-.045.23-.152.324a.469.469 0 0 1-.35.135H32.31v3.482h6.228c.32 0 .503.149.503.46v.256a.47.47 0 0 1-.153.324.423.423 0 0 1-.335.148h-6.228V82.8h7.172c.122 0 .244.054.35.148a.41.41 0 0 1 .153.31v.284h-.03zM51 83.528c0 .121-.044.23-.132.323a.465.465 0 0 1-.338.136h-.514a.462.462 0 0 1-.396-.19v.014l-7.284-8.706v8.436c0 .122-.058.23-.147.324a.5.5 0 0 1-.352.135h-.338a.525.525 0 0 1-.352-.135.422.422 0 0 1-.147-.324V73.46c0-.122.044-.23.147-.31a.513.513 0 0 1 .352-.149h.5c.117 0 .25.067.381.203v-.014c.94 1.147 2.306 2.78 4.097 4.886l1.792 2.105c.528.621.998 1.188 1.424 1.688v-8.41c0-.31.162-.458.485-.458h.337c.118 0 .235.054.338.148a.41.41 0 0 1 .132.31v10.07H51zm11-2.49c0 1.058-.523 1.851-1.57 2.367-.804.397-1.703.595-2.695.595-1.328 0-2.388-.238-3.18-.727C53.524 82.638 53 81.66 53 80.338v-.159c0-.304.148-.45.456-.45h.308c.296 0 .443.146.443.45v.093c0 1.705 1.18 2.564 3.514 2.564.859 0 1.556-.145 2.093-.41.644-.317.965-.793.965-1.427 0-.45-.12-.793-.389-1.058-.2-.198-.536-.37-1.005-.516a5.83 5.83 0 0 0-.658-.171l-1.368-.305c-1.26-.277-2.12-.541-2.602-.793-.966-.502-1.435-1.269-1.435-2.287 0-1.904 1.368-2.869 4.104-2.869 2.87 0 4.333 1.11 4.36 3.332 0 .277-.148.423-.457.423h-.281c-.295 0-.443-.132-.456-.397-.067-1.203-.671-1.917-1.838-2.102a9.116 9.116 0 0 0-1.3-.08c-1.946 0-2.912.556-2.912 1.68 0 .542.242.952.738 1.23.309.184.966.356 1.945.541 1.797.344 3.005.701 3.608 1.085.778.502 1.167 1.282 1.167 2.326zm11 2.503c0 .122-.04.23-.135.324a.412.412 0 0 1-.312.135h-7.106c-.285 0-.447-.148-.447-.459V73.46c0-.31.149-.459.447-.459h7.025c.122 0 .217.054.311.148a.39.39 0 0 1 .136.31v.284c0 .122-.04.23-.136.324a.393.393 0 0 1-.31.135h-6.295v3.482h5.536c.284 0 .433.149.433.46v.256a.48.48 0 0 1-.122.324.383.383 0 0 1-.311.148h-5.536V82.8h6.375c.109 0 .203.054.298.148a.43.43 0 0 1 .136.31v.284H73zm16.985-9.799c0 .31-.162.46-.502.46h-6.199v3.481h5.24c.325 0 .487.149.487.46v.256c0 .31-.162.472-.487.472h-5.24v4.67c0 .297-.162.459-.487.459h-.31c-.325 0-.487-.148-.487-.459V73.46c0-.31.162-.459.487-.459h7.011c.325 0 .502.148.502.459v.283h-.015zM100 79.755c0 2.15-.86 3.484-2.581 3.991-.56.16-1.188.254-1.912.254-1.462 0-2.581-.334-3.333-1.015-.792-.707-1.174-1.788-1.174-3.27V73.44c0-.293.15-.44.464-.44h.287c.3 0 .437.147.437.44v6.261c0 2.083 1.106 3.124 3.305 3.124 2.185 0 3.291-1.028 3.291-3.057v-6.314c0-.294.137-.44.451-.44h.314c.3 0 .451.146.451.44v6.3zm11.987 3.773c0 .121-.04.23-.132.323a.418.418 0 0 1-.304.136h-.462a.402.402 0 0 1-.356-.19v.014l-6.545-8.706v8.436a.46.46 0 0 1-.145.324.398.398 0 0 1-.304.135h-.304a.396.396 0 0 1-.303-.135.445.445 0 0 1-.132-.324V73.46c0-.122.04-.23.132-.31.092-.095.185-.149.303-.149h.449c.106 0 .225.067.356.203v-.014a356.66 356.66 0 0 0 3.682 4.886l1.61 2.105c.475.621.898 1.188 1.28 1.688v-8.41c0-.31.145-.458.449-.458h.304c.105 0 .211.054.303.148.079.081.132.19.132.31v10.07h-.013zM124 78.52c0 1.755-.516 3.118-1.534 4.103-.955.918-2.27 1.377-3.933 1.377h-3.095c-.116 0-.206-.04-.309-.135a.45.45 0 0 1-.129-.324V73.46a.4.4 0 0 1 .129-.31.424.424 0 0 1 .309-.149h3.624c1.586 0 2.81.5 3.713 1.512.812.93 1.225 2.267 1.225 4.008zm-1.148 0c0-2.875-1.263-4.319-3.803-4.319h-2.876V82.8h2.386c2.114 0 3.455-.797 4.01-2.416.18-.54.283-1.16.283-1.863zm3.307-4.309c.111-.239.254-.462.428-.637a2.09 2.09 0 0 1 .635-.415c.238-.111.508-.159.778-.159s.524.048.778.16c.238.095.46.238.635.414.174.175.333.382.428.637.111.24.159.51.159.781 0 .287-.048.558-.159.797s-.254.462-.428.637a1.913 1.913 0 0 1-.635.415c-.238.095-.508.159-.778.159s-.54-.048-.778-.16a1.913 1.913 0 0 1-.635-.414 1.739 1.739 0 0 1-.428-.637 1.882 1.882 0 0 1-.159-.797c0-.287.048-.542.159-.78zm.317 1.466c.08.207.191.383.349.542.143.16.318.271.524.367.207.08.429.127.651.127.222 0 .444-.048.651-.127.19-.096.365-.207.524-.367.142-.16.269-.334.349-.542a1.867 1.867 0 0 0 0-1.355 1.53 1.53 0 0 0-.349-.541 1.56 1.56 0 0 0-.524-.367 1.76 1.76 0 0 0-.651-.127c-.238 0-.46.048-.651.127a1.36 1.36 0 0 0-.524.367c-.142.16-.269.334-.349.542a1.867 1.867 0 0 0 0 1.354zm1.651-1.848c.27 0 .476.047.619.159.127.112.206.287.206.51 0 .207-.063.367-.174.462a.753.753 0 0 1-.445.175l.667 1.036h-.381l-.635-1.004h-.381v1.004h-.365V73.83h.889zm-.159 1.036h.238c.08 0 .143-.016.191-.048.063-.032.095-.064.143-.112a.431.431 0 0 0 .047-.223.347.347 0 0 0-.047-.191.382.382 0 0 0-.111-.112.309.309 0 0 0-.159-.047c-.064-.017-.127-.017-.191-.017h-.476v.75h.365z" fill="#5F5F73"/><defs><linearGradient id="paint1_linear" x1="124.716" y1="42.45" x2="204.776" y2="42.191" gradientUnits="userSpaceOnUse"><stop stop-color="#23AC73"/><stop offset=".719" stop-color="#CFDB4F"/></linearGradient><linearGradient id="paint2_linear" x1="120.023" y1="46.625" x2="238.542" y2="42.959" gradientUnits="userSpaceOnUse"><stop stop-color="#005193"/><stop offset="1" stop-color="#0AAFEC"/></linearGradient><linearGradient id="paint3_linear" x1="140.531" y1="49.524" x2="221.38" y2="74.2" gradientUnits="userSpaceOnUse"><stop stop-color="#005C90"/><stop offset=".625" stop-color="#16A678"/></linearGradient><linearGradient id="paint4_linear" x1="138.065" y1="52.788" x2="180.755" y2="79.34" gradientUnits="userSpaceOnUse"><stop stop-color="#23AC73"/><stop offset=".719" stop-color="#CFDB4F"/></linearGradient><radialGradient id="paint0_radial" cx="0" cy="0" r="1" gradientUnits="userSpaceOnUse" gradientTransform="rotate(142.726 74.505 42.96) scale(33.9217 39.065)"><stop stop-color="#0AAFEC"/><stop offset="1" stop-color="#005193"/></radialGradient></defs></svg>