<svg width="22" height="21" viewBox="0 0 22 21" fill="none" xmlns="http://www.w3.org/2000/svg"><path d="M10.612 5.086c-3 0-5.39 2.437-5.39 5.39 0 3 2.39 5.391 5.39 5.391 2.953 0 5.39-2.39 5.39-5.39 0-2.954-2.437-5.391-5.39-5.391Zm0 8.906a3.51 3.51 0 0 1-3.515-3.515c0-1.922 1.547-3.47 3.515-3.47a3.461 3.461 0 0 1 3.47 3.47c0 1.968-1.548 3.515-3.47 3.515Zm6.844-9.094a1.26 1.26 0 0 0-1.266-1.265 1.26 1.26 0 0 0-1.265 1.265 1.26 1.26 0 0 0 1.265 1.266 1.26 1.26 0 0 0 1.266-1.266Zm3.563 1.266c-.094-1.687-.47-3.187-1.688-4.406C18.112.539 16.612.164 14.925.07c-1.735-.093-6.938-.093-8.672 0-1.688.094-3.14.47-4.406 1.688C.627 2.977.253 4.477.159 6.164c-.094 1.734-.094 6.938 0 8.672.094 1.687.469 3.14 1.688 4.406 1.265 1.219 2.718 1.594 4.406 1.688 1.734.093 6.937.093 8.672 0 1.687-.094 3.187-.47 4.406-1.688 1.219-1.265 1.594-2.719 1.688-4.406.093-1.734.093-6.938 0-8.672Zm-2.25 10.5c-.329.938-1.079 1.64-1.97 2.016-1.405.562-4.687.422-6.187.422-1.547 0-4.828.14-6.187-.422a3.554 3.554 0 0 1-2.016-2.016c-.562-1.36-.422-4.64-.422-6.187 0-1.5-.14-4.782.422-6.188A3.616 3.616 0 0 1 4.425 2.32c1.36-.562 4.64-.422 6.187-.422 1.5 0 4.782-.14 6.188.422.89.328 1.594 1.078 1.969 1.97.562 1.405.421 4.687.421 6.187 0 1.546.141 4.828-.421 6.187Z" fill="#59595C"/></svg>